<svg width="35" height="35" viewBox="0 0 35 35" fill="none" xmlns="http://www.w3.org/2000/svg">
<path d="M35 17.5C35 7.85021 27.1498 -3.23758e-07 17.5 -2.08685e-07C7.85021 -9.36128e-08 9.36128e-08 7.85021 2.08685e-07 17.5C3.23758e-07 27.1498 7.85021 35 17.5 35C27.1498 35 35 27.1498 35 17.5ZM1.45833 17.5C1.45833 8.65521 8.65521 1.45833 17.5 1.45833C26.3448 1.45833 33.5417 8.65521 33.5417 17.5C33.5417 26.3448 26.3448 33.5417 17.5 33.5417C8.65521 33.5417 1.45833 26.3448 1.45833 17.5ZM25.6867 19.6886C25.4018 19.9731 24.9401 19.973 24.6553 19.6882L18.06 13.0915C17.7508 12.7837 17.2477 12.7837 16.94 13.0915L10.3505 19.6823C10.0658 19.9671 9.60417 19.9671 9.31945 19.6824V19.6824C9.03475 19.3977 9.03475 18.9361 9.31945 18.6514L15.9104 12.0604C16.7869 11.184 18.2146 11.184 19.091 12.0604L25.6871 18.6565C25.9722 18.9415 25.972 19.4037 25.6867 19.6886V19.6886Z" fill="white"/>
</svg>
