<svg width="35" height="35" viewBox="0 0 35 35" fill="none" xmlns="http://www.w3.org/2000/svg">
<path d="M35 17.5C35 27.1498 27.1498 35 17.5 35C7.85021 35 8.01326e-08 27.1498 1.78635e-07 17.5C2.77137e-07 7.85021 7.85021 1.09361e-07 17.5 2.43791e-07C27.1498 3.78222e-07 35 7.85021 35 17.5ZM1.45833 17.5C1.45833 26.3448 8.65521 33.5417 17.5 33.5417C26.3448 33.5417 33.5417 26.3448 33.5417 17.5C33.5417 8.65521 26.3448 1.45833 17.5 1.45833C8.65521 1.45833 1.45833 8.65521 1.45833 17.5ZM25.6867 15.3114C25.4018 15.0269 24.9401 15.027 24.6553 15.3118L18.06 21.9085C17.7508 22.2163 17.2477 22.2163 16.94 21.9085L10.3505 15.3177C10.0658 15.0329 9.60417 15.0329 9.31945 15.3176V15.3176C9.03475 15.6023 9.03475 16.0639 9.31945 16.3486L15.9104 22.9396C16.7869 23.816 18.2146 23.816 19.091 22.9396L25.6871 16.3435C25.9722 16.0585 25.972 15.5963 25.6867 15.3114V15.3114Z" fill="#252525"/>
</svg>
